<?xml version="1.0" encoding="UTF-8" standalone="no"?>
<svg
   xmlns:dc="http://purl.org/dc/elements/1.1/"
   xmlns:cc="http://creativecommons.org/ns#"
   xmlns:rdf="http://www.w3.org/1999/02/22-rdf-syntax-ns#"
   xmlns:svg="http://www.w3.org/2000/svg"
   xmlns="http://www.w3.org/2000/svg"
   xmlns:sodipodi="http://sodipodi.sourceforge.net/DTD/sodipodi-0.dtd"
   xmlns:inkscape="http://www.inkscape.org/namespaces/inkscape"
   id="svg2"
   enable-background="new 0 0 100 100"
   xml:space="preserve"
   height="91.245"
   width="82.151"
   version="1.1"
   y="0px"
   x="0px"
   viewBox="0 0 82.151489 91.24501"
   inkscape:version="0.91 r"
   sodipodi:docname="logo.svg"
   inkscape:export-filename="/home/ollar/dev/MusicMonitor/src/components/home/images/logo.png"
   inkscape:export-xdpi="90"
   inkscape:export-ydpi="90"><metadata
     id="metadata15"><rdf:RDF><cc:Work
         rdf:about=""><dc:format>image/svg+xml</dc:format><dc:type
           rdf:resource="http://purl.org/dc/dcmitype/StillImage" /><dc:title></dc:title></cc:Work></rdf:RDF></metadata><defs
     id="defs13" /><sodipodi:namedview
     pagecolor="#ffffff"
     bordercolor="#666666"
     borderopacity="1"
     objecttolerance="10"
     gridtolerance="10"
     guidetolerance="10"
     inkscape:pageopacity="0"
     inkscape:pageshadow="2"
     inkscape:window-width="1085"
     inkscape:window-height="609"
     id="namedview11"
     showgrid="false"
     inkscape:zoom="2.586443"
     inkscape:cx="-16.725889"
     inkscape:cy="45.622501"
     inkscape:window-x="0"
     inkscape:window-y="0"
     inkscape:window-maximized="0"
     inkscape:current-layer="svg2" /><g
     id="g114"
     transform="translate(-10.284 -5.217)"><g
       id="g116"><g
         id="g118"><path
           id="path120"
           style="clip-rule:evenodd;fill:none"
           d="m43.932 5.24c15.84 0 31.68 0.008 47.521-0.023 0.821-0.001 0.983 0.162 0.982 0.983-0.027 29.76-0.027 59.52 0 89.28 0.001 0.821-0.161 0.983-0.982 0.982-26.721-0.027-53.44-0.027-80.16 0-0.822 0.001-1.142-0.161-0.96-0.982 0.989 0.854 2.06 0.885 3.249 0.429 1.454-0.558 2.945-1.017 4.416-1.531 12.796-4.48 24.673-10.575 34.817-19.741 6.53-5.9 11.421-12.896 14.417-21.2 2.281-6.323 2.811-12.864 2.398-19.497-0.292-4.693-1.25-9.253-3.378-13.515-3.026-6.061-7.419-10.658-13.832-13.14-2.739-1.059-5.615-1.545-8.488-2.045zm33.276 14.287c0 3.435 2.519 6.018 5.921 6.074 3.39 0.055 6.183-2.692 6.137-6.037-0.049-3.49-2.614-6.017-6.103-6.01-3.443 0.007-5.955 2.526-5.955 5.973zm6.003 32.6c3.437-0.002 6.037-2.562 6.046-5.951 0.009-3.325-2.83-6.145-6.141-6.099-3.38 0.047-5.924 2.678-5.908 6.106 0.016 3.44 2.547 5.946 6.003 5.944z" /><path
           id="path122"
           style="clip-rule:evenodd;fill:none"
           d="m10.332 95c0-29.529 0.008-59.059-0.033-88.588-0.001-1.087 0.314-1.199 1.258-1.194 8.151 0.038 16.303 0.022 24.455 0.022-2.983 0.577-5.934 1.217-8.695 2.586-10.11 5.015-15.213 15.594-12.458 26.016 1.42 5.375 4.389 9.237 10.281 9.997 4.981 0.642 11.343-1.224 13.083-8.23 0.64-2.577 0.609-5.136-0.022-7.706-1.021-4.157-3.731-6.593-7.794-7.593-3.474-0.854-6.433 0.452-9.222 2.363-0.313 0.214-0.614 0.727-0.997 0.504-0.424-0.246-0.212-0.814-0.155-1.223 0.419-3.021 1.846-5.492 4.143-7.484 3.407-2.954 7.398-4.592 11.842-5.022 5.374-0.521 10.046 0.947 13.583 5.275 2.116 2.588 3.488 5.545 4.329 8.746 1.947 7.423 2.352 14.964 1.76 22.599-0.648 8.356-3.515 15.856-8.348 22.656-5.436 7.647-12.547 13.378-20.606 18.017-4.584 2.64-9.525 4.532-14.325 6.72-0.807 0.366-1.619 0.712-2.079 1.539z" /><path
           id="path124"
           style="clip-rule:evenodd;fill-rule:evenodd"
           d="m10.332 95c0.46-0.827 1.272-1.173 2.078-1.539 4.8-2.188 9.741-4.08 14.325-6.72 8.059-4.639 15.17-10.369 20.606-18.017 4.833-6.8 7.699-14.3 8.348-22.656 0.592-7.635 0.188-15.176-1.76-22.599-0.841-3.201-2.213-6.158-4.329-8.746-3.538-4.328-8.21-5.795-13.583-5.275-4.443 0.43-8.435 2.068-11.842 5.022-2.297 1.992-3.724 4.463-4.143 7.484-0.057 0.409-0.27 0.977 0.155 1.223 0.383 0.223 0.685-0.29 0.997-0.504 2.789-1.911 5.748-3.217 9.222-2.363 4.063 1 6.773 3.436 7.794 7.593 0.631 2.57 0.662 5.129 0.022 7.706-1.74 7.007-8.102 8.873-13.083 8.23-5.892-0.76-8.861-4.622-10.281-9.997-2.754-10.422 2.348-21.001 12.458-26.015 2.761-1.369 5.712-2.01 8.695-2.586h7.92c2.873 0.5 5.75 0.985 8.487 2.044 6.413 2.481 10.806 7.079 13.832 13.14 2.128 4.262 3.086 8.822 3.378 13.515 0.412 6.633-0.117 13.174-2.398 19.497-2.996 8.304-7.887 15.3-14.417 21.2-10.143 9.166-22.021 15.26-34.816 19.741-1.471 0.515-2.962 0.974-4.416 1.531-1.189 0.456-2.259 0.426-3.249-0.429v-0.48z" /><path
           id="path126"
           style="clip-rule:evenodd;fill-rule:evenodd"
           d="m77.208 19.527c0-3.447 2.512-5.966 5.955-5.973 3.488-0.007 6.054 2.52 6.103 6.01 0.046 3.344-2.747 6.091-6.137 6.037-3.402-0.056-5.921-2.639-5.921-6.074z" /><path
           id="path128"
           style="clip-rule:evenodd;fill-rule:evenodd"
           d="m83.211 52.127c-3.456 0.002-5.987-2.504-6.003-5.943-0.016-3.429 2.528-6.059 5.908-6.106 3.311-0.046 6.149 2.774 6.141 6.099-0.009 3.388-2.61 5.948-6.046 5.95z" /></g></g></g></svg>